<?xml version="1.0" standalone="no"?>
<!DOCTYPE svg PUBLIC "-//W3C//DTD SVG 20010904//EN"
 "http://www.w3.org/TR/2001/REC-SVG-20010904/DTD/svg10.dtd">
<svg version="1.0" xmlns="http://www.w3.org/2000/svg"
 width="512.000000pt" height="512.000000pt" viewBox="0 0 512.000000 512.000000"
 preserveAspectRatio="xMidYMid meet">
<metadata>
Created by potrace 1.11, written by Peter Selinger 2001-2013
</metadata>
<g transform="translate(0.000000,512.000000) scale(0.100000,-0.100000)"
fill="#000000" stroke="none">
<path d="M4170 4270 c-9 -6 -10 -10 -3 -10 6 0 15 5 18 10 8 12 4 12 -15 0z"/>
<path d="M4089 4238 c-24 -10 -35 -17 -24 -15 11 3 29 8 39 13 14 5 17 4 11
-6 -6 -10 -4 -10 11 -2 15 8 24 6 41 -10 l22 -20 -2 20 c0 11 -5 18 -9 16 -4
-3 -8 -1 -8 4 0 19 -37 19 -81 0z"/>
<path d="M3980 4200 c-45 -24 -28 -24 25 0 22 10 33 19 25 19 -8 0 -31 -8 -50
-19z"/>
<path d="M4150 4211 c0 -5 -9 -13 -20 -16 -11 -3 -20 -10 -20 -15 0 -5 14 -4
30 1 31 11 38 23 20 34 -5 3 -10 2 -10 -4z"/>
<path d="M3703 4196 c-4 -7 -15 -16 -23 -19 -12 -4 -12 -6 2 -6 10 -1 22 8 28
19 12 22 6 28 -7 6z"/>
<path d="M4063 4195 c0 -7 6 -11 14 -8 7 3 13 6 13 8 0 2 -6 5 -13 8 -8 3 -14
-1 -14 -8z"/>
<path d="M4036 4191 c5 -11 3 -13 -10 -8 -9 4 -14 3 -11 -2 5 -8 -14 -18 -50
-27 -5 -2 -32 -11 -60 -22 -27 -11 -57 -17 -65 -14 -12 4 -13 3 -2 -10 10 -13
9 -18 -5 -29 -16 -13 -17 -12 -4 3 12 16 10 19 -10 26 l-24 9 23 7 c12 4 26 4
32 1 5 -3 10 -1 10 5 0 6 5 8 12 4 7 -5 8 -3 3 6 -6 10 -4 12 9 7 10 -4 15 -3
11 3 -6 9 14 14 42 11 7 -1 10 5 7 13 -4 11 -11 12 -22 6 -10 -5 -52 -25 -94
-44 -43 -19 -78 -38 -78 -41 0 -4 7 -5 15 -1 8 3 15 0 15 -7 0 -7 -9 -13 -19
-13 -11 0 -17 4 -15 8 3 4 -2 8 -10 8 -8 0 -18 -5 -21 -10 -4 -6 -16 -8 -28
-5 -16 5 -18 4 -8 -3 11 -8 9 -12 -10 -18 -13 -4 -30 -7 -38 -5 -7 1 -10 -2
-7 -8 7 -11 -24 -31 -47 -31 -17 0 -30 27 -21 41 4 6 10 6 18 0 10 -8 18 -5
32 10 19 22 19 22 -6 9 -29 -15 -19 -4 32 33 39 29 54 34 42 15 -5 -7 -3 -8 5
-3 8 5 9 11 3 17 -6 6 -24 2 -51 -12 l-42 -21 11 22 c8 14 8 19 1 15 -6 -4
-20 -2 -32 5 -13 6 -19 7 -15 1 3 -6 -2 -13 -13 -17 -11 -3 -22 -12 -24 -20
-3 -7 -17 -12 -31 -11 -14 2 -23 -1 -20 -5 3 -5 0 -9 -5 -9 -22 0 -32 -7 -89
-58 -19 -17 -28 -19 -38 -11 -11 9 -14 8 -14 -5 0 -11 -5 -14 -12 -10 -6 4 -8
3 -5 -3 9 -14 -42 -47 -68 -45 -11 0 -15 -2 -10 -6 21 -15 13 -29 -14 -26 -19
2 -34 -3 -43 -14 -12 -15 -11 -16 5 -3 9 7 17 11 17 8 0 -9 -59 -49 -75 -51
-8 -1 -18 -5 -21 -9 -14 -13 -23 -7 -19 13 5 25 -13 16 -70 -36 -22 -20 -32
-31 -22 -24 9 7 17 9 17 5 0 -5 11 5 25 21 14 16 25 23 25 16 0 -7 4 -11 9 -7
5 3 12 1 16 -5 3 -5 2 -10 -4 -10 -18 0 -78 -45 -87 -65 -5 -11 -16 -20 -24
-20 -8 0 -15 -6 -15 -13 0 -17 -35 -43 -47 -36 -4 3 -6 11 -2 17 3 7 -1 4 -9
-6 -12 -15 -16 -15 -20 -3 -6 15 18 30 34 21 5 -4 6 2 3 12 -4 13 -3 14 3 5 8
-10 12 -10 22 2 21 25 -11 25 -42 0 -15 -13 -34 -21 -41 -18 -8 3 -17 1 -21
-5 -4 -7 1 -8 12 -4 10 3 -3 -15 -29 -40 -45 -44 -61 -66 -37 -51 7 4 10 0 7
-11 -4 -23 -34 -28 -54 -8 -14 14 -18 14 -37 -6 -17 -17 -18 -21 -4 -15 9 3
17 10 17 16 0 5 5 6 10 3 8 -5 7 -12 -2 -23 -12 -15 -11 -16 5 -3 16 12 20 12
35 -4 16 -16 16 -17 -4 -7 -15 8 -24 8 -33 -1 -7 -7 -17 -12 -24 -12 -7 -1
-11 -6 -10 -13 2 -6 -3 -9 -11 -6 -7 3 -19 -2 -26 -11 -15 -18 -34 -20 -24 -2
6 9 5 9 -8 0 -8 -7 -18 -11 -21 -8 -4 3 -5 2 -2 -1 4 -6 -19 -34 -29 -34 -14
0 -66 -62 -60 -72 4 -7 3 -8 -4 -4 -7 4 -24 -4 -39 -18 -27 -25 -50 -35 -39
-17 4 5 1 11 -6 13 -9 3 -9 6 0 12 7 4 12 2 12 -3 0 -20 16 -11 33 19 20 33 6
42 -16 10 -8 -11 -16 -18 -18 -15 -5 5 -109 -100 -109 -110 0 -3 -9 -14 -20
-25 -11 -11 -20 -18 -20 -16 0 3 -106 -106 -145 -149 -129 -145 -178 -200
-232 -266 l-46 -57 -485 2 -485 1 -26 50 c-77 146 -88 156 -119 113 -7 -10
-19 -18 -27 -18 -8 0 -20 -9 -28 -20 -8 -11 -17 -17 -20 -13 -4 3 -7 -1 -7
-10 0 -9 -6 -20 -13 -24 -8 -4 -19 -17 -25 -28 -7 -12 -12 -14 -12 -6 0 11 -3
11 -15 1 -8 -6 -19 -9 -26 -5 -7 5 -7 0 1 -16 l13 -24 -23 20 c-20 17 -22 17
-17 3 4 -12 2 -15 -9 -11 -8 3 -14 -1 -14 -11 0 -15 -22 -21 -57 -17 -6 1 -14
-8 -18 -19 -3 -11 -12 -20 -19 -20 -8 0 -19 -6 -26 -14 -6 -8 -18 -12 -26 -9
-10 4 -14 -2 -14 -21 0 -28 -9 -33 -28 -14 -12 12 -12 8 4 -67 11 -53 72 -167
167 -309 l92 -139 5 -526 5 -526 26 -55 c31 -64 78 -118 134 -154 81 -52 96
-53 825 -51 627 2 678 3 720 20 86 35 154 98 197 185 l28 55 0 690 c0 380 -3
702 -7 716 -7 22 3 37 73 115 45 49 185 194 313 323 272 275 454 432 694 598
28 20 52 40 52 44 0 5 5 9 10 9 6 0 33 15 61 34 27 19 58 38 69 41 11 4 20 11
20 16 0 5 6 9 13 9 8 0 32 13 54 29 34 24 207 114 223 116 22 2 88 40 83 48
-3 6 -1 7 4 4 6 -4 34 3 63 15 29 12 48 24 42 26 -6 2 -8 11 -5 20 6 15 5 15
-11 3 -13 -11 -14 -16 -4 -22 7 -5 -4 -6 -24 -2 -26 4 -38 2 -38 -6 0 -7 -4
-10 -9 -6 -6 3 -27 -4 -48 -16 -43 -25 -89 -33 -98 -19 -4 6 1 7 11 3 11 -4
15 -2 11 4 -7 10 33 33 58 33 8 0 15 4 15 9 0 5 8 8 17 7 10 -2 29 8 43 21 14
13 31 21 38 18 6 -2 12 -1 12 3 0 8 58 36 80 38 8 1 69 17 135 37 66 19 145
40 175 46 30 6 64 13 75 15 11 2 4 4 -15 5 -20 0 -65 -7 -101 -17 -36 -10 -76
-18 -87 -17 -12 1 -19 -2 -16 -7 3 -5 -6 -6 -20 -2 -16 4 -26 2 -26 -4 0 -7
-10 -8 -30 -2 -16 5 -30 5 -30 2 0 -4 -19 -12 -42 -19 -24 -6 -54 -14 -67 -19
-17 -5 -22 -4 -17 4 4 7 2 12 -3 12 -6 0 -11 -7 -11 -15 0 -17 -43 -31 -61
-19 -7 4 -9 3 -6 -3 4 -6 0 -14 -9 -17 -8 -3 -12 -2 -9 4 3 6 -1 7 -9 4 -9 -3
-16 -2 -16 2 0 13 51 35 62 28 6 -4 5 3 -1 14 -7 14 -17 18 -31 15 -31 -8 -23
7 10 18 37 13 38 26 4 39 -31 12 -22 32 10 24 16 -4 25 0 30 12 4 9 5 18 4 20
-2 1 -52 -18 -113 -42 -60 -25 -119 -46 -130 -49 -11 -2 -21 -4 -22 -6 -2 -1
-6 -2 -10 -3 -5 -1 -19 -8 -32 -15 -21 -11 -23 -11 -18 1 3 9 -1 15 -9 15 -8
0 -13 -7 -12 -15 2 -10 -8 -16 -30 -18 -18 -2 -40 -11 -48 -19 -19 -18 -25
-19 -18 -2 2 7 29 26 59 43 33 17 53 34 50 42 -3 7 6 5 22 -5 15 -10 24 -13
20 -6 -9 14 27 28 45 17 9 -5 8 -2 -1 9 -8 10 -11 20 -7 24 3 3 6 1 6 -5 0
-17 19 -14 65 8 25 12 33 19 21 20 -10 0 -25 8 -33 18 -8 9 -11 11 -7 3z m-1
-31 c-27 -12 -43 -12 -25 0 8 5 22 9 30 9 10 0 8 -3 -5 -9z m119 -35 c-4 -11
-2 -13 9 -9 8 3 18 0 22 -5 3 -6 11 -8 17 -5 7 5 8 2 3 -5 -5 -8 -19 -11 -40
-7 -36 7 -74 -2 -56 -14 7 -4 2 -11 -14 -18 -15 -7 -25 -8 -25 -2 0 6 -4 10
-10 10 -5 0 -7 -7 -4 -15 4 -8 1 -15 -6 -15 -6 0 -8 5 -5 10 3 6 0 10 -7 10
-9 0 -9 3 2 10 8 5 25 7 37 4 18 -5 22 -2 18 14 -3 20 19 37 35 27 4 -3 10 2
14 10 3 8 8 15 10 15 3 0 3 -7 0 -15z m-204 -1 c0 -8 -19 -13 -24 -6 -3 5 1 9
9 9 8 0 15 -2 15 -3z m-384 -20 c-2 -16 -36 -42 -36 -28 0 7 30 44 36 44 1 0
1 -7 0 -16z m244 -4 c13 -8 13 -10 -2 -10 -9 0 -20 5 -23 10 -8 13 5 13 25 0z
m-290 -34 c0 -7 -63 -37 -67 -32 -2 2 11 11 29 19 37 18 38 19 38 13z m615
-16 c-8 -13 6 -13 42 0 26 9 27 9 9 -5 -11 -8 -24 -15 -28 -15 -5 0 -12 -9
-16 -19 -6 -18 -9 -18 -27 -4 -16 13 -17 15 -2 10 20 -7 23 13 5 31 -9 9 -8
12 6 12 9 0 14 -4 11 -10z m-590 -44 c2 -27 -1 -33 -13 -28 -9 3 -13 1 -9 -5
3 -5 0 -10 -8 -10 -22 0 -18 13 8 24 19 9 16 10 -19 9 -29 0 -40 -4 -37 -13 3
-8 -3 -13 -16 -13 -12 0 -21 -4 -21 -8 0 -4 -9 -8 -20 -8 -11 0 -20 3 -20 7 0
15 31 31 50 26 10 -3 19 -2 18 2 -2 19 3 31 11 26 5 -3 17 2 25 11 14 14 16
14 16 0 0 -10 6 -13 17 -9 11 4 13 8 5 11 -7 2 -9 8 -6 14 10 15 17 1 19 -36z
m460 24 c-3 -5 -12 -10 -18 -10 -7 0 -6 4 3 10 19 12 23 12 15 0z m92 3 c-10
-3 -16 -10 -14 -17 3 -8 -6 -10 -32 -7 -29 4 -31 6 -11 9 14 2 29 8 35 13 5 5
16 8 25 8 11 -1 10 -3 -3 -6z m-317 -27 c0 -3 -4 -8 -10 -11 -5 -3 -10 -1 -10
4 0 6 5 11 10 11 6 0 10 -2 10 -4z m336 -18 c4 -7 4 -10 0 -6 -5 4 -19 3 -32
-2 -13 -5 -24 -7 -24 -4 0 3 25 16 47 23 1 1 5 -5 9 -11z m-736 -3 c0 -2 -10
-10 -22 -16 -21 -11 -22 -11 -9 4 13 16 31 23 31 12z m4 -57 c-3 -4 -12 -4
-21 -1 -12 5 -14 3 -8 -7 5 -8 4 -11 -3 -6 -6 3 -15 -2 -21 -11 -5 -10 -12
-17 -15 -15 -3 1 -5 0 -3 -3 4 -8 -41 -35 -55 -33 -7 2 -12 -3 -10 -10 1 -8
-1 -11 -6 -8 -5 3 -26 -6 -46 -20 -41 -28 -58 -28 -26 -1 11 9 20 14 20 10 0
-4 15 6 33 23 17 16 48 37 68 47 20 10 47 29 60 41 15 15 27 19 31 13 4 -6 5
-14 2 -19z m-82 2 c-18 -11 -36 -20 -40 -20 -14 1 43 40 58 40 8 0 0 -9 -18
-20z m167 17 c-2 -2 -22 -15 -44 -31 l-40 -27 35 30 c19 17 39 31 44 31 5 0 7
-1 5 -3z m561 -82 c-7 -8 -17 -15 -23 -15 -6 0 -2 7 9 15 25 19 30 19 14 0z
m-710 -19 c0 -2 -7 -7 -16 -10 -8 -3 -12 -2 -9 4 6 10 25 14 25 6z m615 -36
c-3 -5 -12 -10 -18 -10 -7 0 -6 4 3 10 19 12 23 12 15 0z m-815 -4 c0 -2 -8
-10 -17 -17 -16 -13 -17 -12 -4 4 13 16 21 21 21 13z m20 -26 c0 -5 -5 -10
-11 -10 -5 0 -7 5 -4 10 3 6 8 10 11 10 2 0 4 -4 4 -10z m-45 -53 c-11 -6 -26
-12 -33 -13 -8 -2 -15 -4 -15 -6 -14 -27 -27 -43 -35 -41 -6 2 -19 -7 -29 -20
-27 -32 -82 -78 -63 -52 8 11 21 24 28 28 7 5 9 14 6 20 -4 7 -4 9 0 6 4 -4
19 4 33 17 14 13 29 21 34 18 5 -3 9 1 9 9 0 18 35 42 64 44 21 2 21 2 1 -10z
m-130 -47 c-3 -5 -27 -24 -53 -42 -26 -17 -41 -25 -35 -17 7 9 9 20 5 24 -4 5
-2 5 4 2 6 -3 26 5 45 18 38 27 43 29 34 15z m-140 -24 c-10 -7 -16 -20 -13
-28 4 -9 0 -15 -8 -15 -8 0 -14 5 -14 10 0 14 31 47 43 47 6 0 2 -6 -8 -14z
m-290 -256 c-3 -5 -11 -10 -16 -10 -6 0 -7 5 -4 10 3 6 11 10 16 10 6 0 7 -4
4 -10z m-194 -133 c-10 -9 -11 -8 -5 6 3 10 9 15 12 12 3 -3 0 -11 -7 -18z
m-41 -42 c-7 -9 -15 -13 -19 -10 -3 3 1 10 9 15 21 14 24 12 10 -5z m-644
-694 c-3 -4 -52 -74 -111 -156 -59 -83 -125 -180 -148 -217 -23 -37 -46 -66
-52 -65 -5 2 -54 68 -107 148 -54 79 -123 175 -153 214 -30 38 -55 73 -55 76
0 3 142 6 315 6 173 0 313 -2 311 -6z m635 -818 c0 -326 -4 -560 -10 -575 -5
-14 -22 -35 -36 -46 -27 -21 -32 -21 -682 -22 -648 0 -655 0 -684 21 -52 37
-53 42 -54 362 0 163 0 297 1 297 1 0 39 -51 85 -112 178 -244 225 -296 311
-343 47 -27 62 -30 139 -30 77 0 91 3 152 34 109 55 137 87 305 338 118 177
375 526 432 586 17 18 30 36 30 41 0 5 3 7 6 4 3 -3 5 -253 5 -555z"/>
<path d="M3570 4181 c0 -6 4 -13 10 -16 6 -3 7 1 4 9 -7 18 -14 21 -14 7z"/>
<path d="M3747 4170 c-3 -11 0 -23 6 -27 7 -3 9 -3 5 2 -4 4 -3 16 3 26 5 11
6 19 1 19 -6 0 -12 -9 -15 -20z"/>
<path d="M3716 4165 c-11 -8 -15 -15 -9 -15 6 0 16 7 23 15 16 19 11 19 -14 0z"/>
<path d="M3500 4150 c-9 -6 -10 -10 -3 -10 6 0 15 5 18 10 8 12 4 12 -15 0z"/>
<path d="M4256 4121 c-4 -5 3 -7 14 -4 23 6 26 13 6 13 -8 0 -17 -4 -20 -9z"/>
<path d="M4410 4100 c0 -5 7 -10 16 -10 8 0 12 5 9 10 -3 6 -10 10 -16 10 -5
0 -9 -4 -9 -10z"/>
<path d="M4268 4093 c6 -2 18 -2 25 0 6 3 1 5 -13 5 -14 0 -19 -2 -12 -5z"/>
<path d="M4225 4080 l-20 -9 20 0 c17 -1 17 -3 5 -11 -21 -13 -13 -12 40 5
l45 15 -38 -6 c-26 -3 -37 -2 -32 5 7 13 7 13 -20 1z"/>
<path d="M3375 4070 c-3 -5 -1 -10 4 -10 6 0 11 5 11 10 0 6 -2 10 -4 10 -3 0
-8 -4 -11 -10z"/>
<path d="M3325 4044 c-25 -21 -26 -23 -4 -10 14 9 28 14 31 11 2 -3 5 2 5 10
0 8 -1 15 -1 15 -1 0 -14 -12 -31 -26z"/>
<path d="M3250 4000 c-8 -5 -12 -12 -9 -15 4 -3 12 1 19 10 14 17 11 19 -10 5z"/>
<path d="M4358 3993 c7 -3 16 -2 19 1 4 3 -2 6 -13 5 -11 0 -14 -3 -6 -6z"/>
<path d="M4340 3970 c-9 -6 -10 -10 -3 -10 6 0 15 5 18 10 8 12 4 12 -15 0z"/>
<path d="M3190 3941 c0 -6 4 -12 8 -15 5 -3 9 1 9 9 0 8 -4 15 -9 15 -4 0 -8
-4 -8 -9z"/>
<path d="M3155 3929 c-4 -6 -5 -12 -2 -15 2 -3 7 2 10 11 7 17 1 20 -8 4z"/>
<path d="M3120 3910 c-8 -5 -12 -12 -9 -15 4 -3 12 1 19 10 14 17 11 19 -10 5z"/>
<path d="M2960 3869 c-22 -18 -22 -19 -3 -10 12 6 25 16 28 21 9 15 3 12 -25
-11z"/>
<path d="M2808 3744 c-32 -25 -58 -50 -58 -55 0 -6 -4 -8 -8 -5 -5 3 -9 -1 -9
-8 0 -8 6 -12 14 -9 7 3 13 12 13 20 0 8 4 12 9 8 5 -3 17 5 25 17 9 12 16 19
16 14 0 -5 7 -3 15 4 8 7 12 17 9 22 -3 5 2 8 11 6 11 -2 19 4 20 15 2 9 3 17
2 17 -1 0 -28 -21 -59 -46z"/>
<path d="M2943 3775 c-9 -10 -9 -14 0 -18 7 -2 16 -6 21 -8 5 -2 10 4 12 14 1
9 -1 15 -6 12 -5 -3 -10 -1 -12 4 -1 5 -8 3 -15 -4z"/>
<path d="M2909 3703 c-13 -15 -12 -15 9 -4 23 12 28 21 13 21 -5 0 -15 -7 -22
-17z"/>
<path d="M2769 3663 c-13 -16 -12 -17 4 -4 16 13 21 21 13 21 -2 0 -10 -8 -17
-17z"/>
<path d="M2660 3620 c-14 -10 -25 -25 -25 -32 -1 -7 -6 -12 -12 -11 -6 1 -16
-4 -23 -12 -9 -10 -8 -13 3 -11 19 2 47 26 44 36 -1 4 9 17 23 28 31 27 24 28
-10 2z"/>
<path d="M2549 3518 c0 -2 -2 -11 -4 -21 -3 -15 -1 -16 11 -6 16 13 19 29 4
29 -5 0 -10 -1 -11 -2z"/>
<path d="M2502 3475 c-30 -38 -28 -51 4 -22 15 14 25 30 22 37 -3 9 -12 3 -26
-15z"/>
</g>
</svg>
